HIERARCHY
ROOT Hips
{
	OFFSET -3.958830 18.904000 13.208200
	CHANNELS 6 Xposition Yposition Zposition Zrotation Yrotation Xrotation 
	JOINT LHipJoint
	{
		OFFSET 0.000000 0.000000 0.000000
		CHANNELS 3 Zrotation Yrotation Xrotation
		JOINT LeftUpLeg
		{
			OFFSET 1.800000 -1.400000 0.085000
			CHANNELS 3 Zrotation Yrotation Xrotation
			JOINT LeftLeg
			{
				OFFSET 2.215000 -6.000000 0.000000
				CHANNELS 3 Zrotation Yrotation Xrotation
				JOINT LeftFoot
				{
					OFFSET 2.500000 -6.900000 0.000000
					CHANNELS 3 Zrotation Yrotation Xrotation
					JOINT LeftToeBase
					{
						OFFSET 0.200000 -0.500000 1.950000
						CHANNELS 3 Zrotation Yrotation Xrotation
						End Site
						{
							OFFSET 0.000000 0.000000 0.000000
						}
					}
				}
			}
		}
	}
	JOINT RHipJoint
	{
		OFFSET 0.000000 0.000000 0.000000
		CHANNELS 3 Zrotation Yrotation Xrotation
		JOINT RightUpLeg
		{
			OFFSET -1.800000 -1.400000 0.085000
			CHANNELS 3 Zrotation Yrotation Xrotation
			JOINT RightLeg
			{
				OFFSET -2.215000 -6.000000 0.000000
				CHANNELS 3 Zrotation Yrotation Xrotation
				JOINT RightFoot
				{
					OFFSET -2.500000 -6.900000 0.000000
					CHANNELS 3 Zrotation Yrotation Xrotation
					JOINT RightToeBase
					{
						OFFSET -0.200000 -0.500000 1.950000
						CHANNELS 3 Zrotation Yrotation Xrotation
						End Site
						{
							OFFSET 0.000000 0.000000 0.000000
						}
					}
				}
			}
		}
	}
	JOINT LowerBack
	{
		OFFSET 0.000000 0.000000 0.000000
		CHANNELS 3 Zrotation Yrotation Xrotation
		JOINT Spine
		{
			OFFSET -0.087000 1.940000 -0.288900
			CHANNELS 3 Zrotation Yrotation Xrotation
			JOINT Spine1
			{
				OFFSET 0.000000 1.950000 0.060000
				CHANNELS 3 Zrotation Yrotation Xrotation
				JOINT Neck
				{
					OFFSET 0.000000 0.000000 0.000000
					CHANNELS 3 Zrotation Yrotation Xrotation
					JOINT Neck1
					{
						OFFSET 0.000000 1.600000 0.340000
						CHANNELS 3 Zrotation Yrotation Xrotation
						JOINT Head
						{
							OFFSET 0.000000 1.667000 -0.240000
							CHANNELS 3 Zrotation Yrotation Xrotation
							End Site
							{
								OFFSET 0.000000 0.000000 0.000000
							}
						}
					}
				}
				JOINT LeftShoulder
				{
					OFFSET 0.000000 0.000000 0.000000
					CHANNELS 3 Zrotation Yrotation Xrotation
					JOINT LeftArm
					{
						OFFSET 2.700000 1.550000 -0.730000
						CHANNELS 3 Zrotation Yrotation Xrotation
						JOINT LeftForeArm
						{
							OFFSET 5.450000 0.000000 0.000000
							CHANNELS 3 Zrotation Yrotation Xrotation
							JOINT LeftHand
							{
								OFFSET 3.450000 0.000000 0.000000
								CHANNELS 3 Zrotation Yrotation Xrotation
								JOINT LeftHandIndex1
								{
									OFFSET 0.750000 0.000000 0.000000
									CHANNELS 3 Zrotation Yrotation Xrotation
									End Site
									{
										OFFSET 0.000000 0.000000 0.000000
									}
								}
							}
						}
					}
				}
				JOINT RightShoulder
				{
					OFFSET 0.000000 0.000000 0.000000
					CHANNELS 3 Zrotation Yrotation Xrotation
					JOINT RightArm
					{
						OFFSET -2.700000 1.550000 -0.730000
						CHANNELS 3 Zrotation Yrotation Xrotation
						JOINT RightForeArm
						{
							OFFSET -5.450000 0.000000 0.000000
							CHANNELS 3 Zrotation Yrotation Xrotation
							JOINT RightHand
							{
								OFFSET -3.450000 0.000000 0.000000
								CHANNELS 3 Zrotation Yrotation Xrotation
								JOINT RightHandIndex1
								{
									OFFSET -0.750000 0.000000 0.000000
									CHANNELS 3 Zrotation Yrotation Xrotation
									End Site
									{
										OFFSET 0.000000 0.000000 0.000000
									}
								}
							}
						}
					}
				}
			}
		}
	}
}
MOTION
Frames: 9
Frame Time: 0.016667
0.104380 17.555090 -0.777200 -2.504644 -36.956491 4.739671 -15.264712 13.799096 2.556357 4.531480 -1.096921 -9.406154 -4.934449 5.786366 15.460221 -0.408504 4.619366 3.274432 0.560870 0.364080 0.289460 18.207471 -10.373434 2.755053 -6.327634 2.486670 -25.483225 8.433079 -5.390076 16.417671 -0.028899 -3.326191 3.257723 0.332370 0.729420 0.525350 -3.209678 -3.039685 -6.404434 5.334969 -4.441790 0.418460 1.091483 -5.279797 12.948000 -0.639571 -2.474007 -7.416590 -6.510611 8.668755 32.665935 -4.965090 8.763050 0.215030 -2.149863 -3.819025 2.459852 -26.194586 -20.484334 4.504614 3.451182 -70.170309 -2.434663 -3.936044 3.518900 0.074850 0.643990 -0.188540 0.480530 3.797386 4.089582 2.700203 26.704221 11.404928 -2.425224 6.667272 77.001986 4.204078 1.535621 -2.357420 -0.130960 0.179410 -0.182400 0.028540 
0.110250 17.560250 -0.776580 -2.439007 -37.066869 4.806006 -15.267789 13.812683 2.583891 4.464300 -1.099902 -9.423093 -5.087461 5.780693 15.250613 -0.395834 4.561284 3.271644 0.579430 0.374230 0.318980 18.201798 -10.350973 2.766529 -6.331663 2.544532 -25.908556 8.270939 -5.413058 16.847787 -0.063724 -3.258586 3.264738 0.310860 0.663230 0.515670 -3.189872 -3.104462 -6.451164 5.334497 -4.559959 0.563769 1.056044 -5.346693 12.696094 -0.558452 -2.862639 -7.816771 -7.483752 8.911438 33.905112 -4.720240 8.663690 -0.999790 -2.115671 -5.212608 2.650137 -23.502869 -20.078138 4.448827 -5.183882 -67.579519 3.366532 -3.883561 3.555884 0.140690 0.571910 -0.127930 0.471080 3.580349 5.774836 3.136192 24.029968 11.709553 -1.826356 14.474083 72.811238 9.553905 1.625575 -2.320335 -0.114530 0.175640 -0.195820 0.018170 
0.115880 17.566410 -0.775000 -2.328749 -37.051161 4.929626 -15.269398 13.823302 2.611406 4.339581 -1.125407 -9.552119 -5.196463 5.762485 15.094978 -0.372028 4.485366 3.273257 0.594770 0.379060 0.343930 18.197070 -10.325301 2.786592 -6.444817 2.609232 -26.490981 8.204166 -5.477571 17.355865 -0.093497 -3.208518 3.268495 0.279960 0.595620 0.507310 -3.173342 -3.165490 -6.503005 5.333570 -4.688275 0.684839 1.003474 -5.423557 12.317748 -0.460278 -3.255425 -8.283900 -8.490593 9.111844 35.044814 -4.363110 8.494560 -1.959040 -2.017500 -6.535957 2.912779 -21.431312 -19.703159 4.414385 -12.047766 -64.666947 7.581846 -3.820752 3.579652 0.196600 0.501020 -0.074840 0.458610 3.277002 7.400441 3.604404 22.096942 12.057497 -1.343735 19.437046 68.121480 12.235554 1.706191 -2.250413 -0.089100 0.157210 -0.209710 0.010530 
0.121070 17.573410 -0.773350 -2.239808 -37.041841 5.063028 -15.266424 13.833939 2.639948 4.236425 -1.152861 -9.722775 -5.338107 5.773036 15.032718 -0.335159 4.409260 3.275522 0.596990 0.377570 0.356110 18.194856 -10.303317 2.815978 -6.542624 2.696717 -27.184147 8.117435 -5.567009 18.044012 -0.122438 -3.167460 3.271945 0.241100 0.529920 0.492710 -3.165452 -3.215276 -6.566556 5.418052 -4.769645 0.912346 0.931448 -5.446332 11.813392 -0.336928 -3.649847 -8.811985 -9.564145 9.253326 36.230448 -3.972650 8.265900 -2.866490 -1.982221 -7.825920 3.188695 -19.826217 -19.459813 4.424100 -17.595524 -61.438972 10.587269 -3.751800 3.580593 0.247270 0.428090 -0.021860 0.445650 2.996092 9.004328 4.154218 20.830933 12.293395 -1.037314 22.269751 63.499167 13.146684 1.785212 -2.153024 -0.062830 0.141440 -0.220590 0.009080 
0.125120 17.578550 -0.770920 -2.097227 -36.834873 5.197511 -15.265066 13.849854 2.665594 4.085079 -1.217852 -10.034571 -5.410979 5.793636 15.226844 -0.308157 4.347533 3.270640 0.598740 0.372930 0.368980 18.191067 -10.274062 2.849887 -6.731530 2.771205 -27.939033 8.122147 -5.703433 18.770715 -0.150956 -3.150410 3.265846 0.203760 0.466890 0.481750 -3.150848 -3.285540 -6.631101 5.488528 -4.863528 1.158546 0.885662 -5.472883 11.262551 -0.211719 -4.036757 -9.315316 -10.662572 9.304104 37.206318 -3.752810 7.980440 -3.847920 -1.958250 -8.939875 3.371859 -19.076108 -19.694489 4.573483 -21.074720 -57.721750 11.983591 -3.687052 3.561610 0.297030 0.361390 0.025900 0.429890 2.732394 10.417120 4.745743 20.274298 12.318879 -0.901564 23.731846 59.447359 13.110972 1.848358 -2.057583 -0.038950 0.123970 -0.227090 0.003900 
0.126200 17.581870 -0.767750 -2.041362 -36.476193 5.420988 -15.258453 13.856172 2.684794 4.077021 -1.316209 -10.470569 -5.548532 5.850619 15.521331 -0.276993 4.305562 3.264378 0.592010 0.365830 0.370870 18.193445 -10.243148 2.891138 -6.897154 2.861541 -28.772479 8.170905 -5.877358 19.614820 -0.174507 -3.165918 3.250821 0.170520 0.419730 0.470720 -3.158847 -3.339118 -6.692282 5.743893 -4.999356 1.385765 0.708015 -5.526660 10.716226 -0.086692 -4.357584 -9.775964 -11.579551 9.277938 37.794813 -3.556750 7.678830 -4.519570 -1.825698 -9.875892 3.514180 -19.109317 -20.258262 4.830136 -22.862481 -53.828220 12.188435 -3.635364 3.529279 0.328910 0.309880 0.062250 0.418010 2.352430 11.571910 5.302545 20.505037 12.354287 -0.832253 24.117189 55.794934 12.450718 1.901924 -1.972967 -0.018590 0.109620 -0.232270 0.005340 
0.124270 17.585000 -0.763690 -2.036961 -36.151257 5.683553 -15.247590 13.852519 2.699208 4.144854 -1.408811 -10.855189 -5.736851 5.917624 15.738699 -0.242619 4.280319 3.263100 0.580990 0.353590 0.365350 18.201953 -10.207007 2.941783 -7.069097 2.976240 -29.680316 8.314508 -6.109937 20.588134 -0.197529 -3.221723 3.227915 0.137840 0.392110 0.462490 -3.190373 -3.379690 -6.751741 6.184807 -5.176093 1.624031 0.342708 -5.600454 10.195562 0.043742 -4.678381 -10.221431 -12.423353 9.305223 38.030365 -3.331320 7.410240 -4.870830 -1.671808 -10.666206 3.690584 -19.746292 -20.801195 5.087476 -23.281500 -49.930618 11.541014 -3.597804 3.486436 0.349640 0.273030 0.087510 0.414410 1.929059 12.562006 5.805361 21.390024 12.479070 -0.836252 23.596942 52.555360 11.401665 1.944149 -1.897078 -0.002520 0.101150 -0.236550 0.011980 
0.118370 17.587470 -0.759070 -2.015455 -35.788585 5.905184 -15.232474 13.843096 2.707880 4.240094 -1.503863 -11.210480 -5.923774 6.004315 16.037752 -0.201089 4.280507 3.260340 0.561980 0.332120 0.352520 18.215706 -10.171217 2.997793 -7.297328 3.087573 -30.613866 8.517493 -6.398224 21.686199 -0.215222 -3.324297 3.190614 0.105150 0.382050 0.459690 -3.240679 -3.408620 -6.807866 6.746286 -5.376977 1.894364 -0.268821 -5.667510 9.725851 0.169458 -4.972151 -10.645262 -13.101024 9.260475 37.764774 -3.082920 7.104050 -4.733950 -1.493766 -11.349329 3.886102 -20.756138 -21.309235 5.310544 -22.581615 -46.180110 10.364995 -3.580629 3.441439 0.351840 0.253750 0.098610 0.412550 1.473760 13.406752 6.279139 22.975799 12.594166 -0.947443 22.172096 49.703915 10.033014 1.978749 -1.835389 0.012040 0.090440 -0.238050 0.023600 
0.108630 17.590220 -0.754960 -2.062420 -35.457560 6.081054 -15.214364 13.834889 2.714653 4.473912 -1.583962 -11.488957 -6.174966 6.127043 16.342583 -0.172580 4.304880 3.248961 0.538020 0.310020 0.330470 18.231940 -10.136724 3.056114 -7.452983 3.219237 -31.503559 8.640112 -6.698553 22.906885 -0.232168 -3.448854 3.151061 0.077280 0.380430 0.448930 -3.299072 -3.436043 -6.868143 7.382296 -5.592997 2.281309 -0.979887 -5.722673 9.328986 0.309831 -5.249558 -11.083127 -13.703329 9.251054 37.376539 -2.813760 6.818060 -4.721950 -1.326809 -11.958060 4.155036 -22.146768 -21.581749 5.382867 -20.646555 -42.867410 8.777743 -3.569566 3.381223 0.356680 0.239180 0.101480 0.409320 1.000493 14.164193 6.708712 24.994188 12.716247 -1.176663 20.036182 47.199045 8.512598 1.998881 -1.769055 0.016090 0.091620 -0.230410 0.032810 
